HIERARCHY
ROOT Hips
{
  OFFSET 55.281 93.9525 -3.15217
  CHANNELS 6 Xposition Yposition Zposition Zrotation Xrotation Yrotation
  JOINT spine
  {
    OFFSET 0 7.80059 0.448573
    CHANNELS 3 Zrotation Xrotation Yrotation
    JOINT spine1
    {
      OFFSET 0 10.1364 0
      CHANNELS 3 Zrotation Xrotation Yrotation
      JOINT spine2
      {
        OFFSET 0 9.71251 0
        CHANNELS 3 Zrotation Xrotation Yrotation
        JOINT Neck
        {
          OFFSET 0 24.9361 1.18887
          CHANNELS 3 Zrotation Xrotation Yrotation
          JOINT Head
          {
            OFFSET 0 7.53384 0
            CHANNELS 3 Zrotation Xrotation Yrotation
            End Site
            {
              OFFSET 0 18.2361 -6.01402
            }
          }
        }
        JOINT RightShoulder
        {
          OFFSET -4.08965 10.4888 -0.569457
          CHANNELS 3 Zrotation Xrotation Yrotation
          JOINT RightArm
          {
            OFFSET 0 13.757 0
            CHANNELS 3 Zrotation Xrotation Yrotation
            JOINT RightArmRoll
            {
              OFFSET 0 6.94478 0
              CHANNELS 3 Zrotation Xrotation Yrotation
              JOINT RightForeArm
              {
                OFFSET 0 20.2277 0
                CHANNELS 3 Zrotation Xrotation Yrotation
                JOINT RightForeArmRoll
                {
                  OFFSET 0 7.79312 0
                  CHANNELS 3 Zrotation Xrotation Yrotation
                  JOINT RightHand
                  {
                    OFFSET 0 15.6391 0
                    CHANNELS 3 Zrotation Xrotation Yrotation
                    End Site
                    {
                      OFFSET 0 0 0
                    }
                  }
                }
              }
            }
          }
        }
        JOINT LeftShoulder
        {
          OFFSET 4.08965 10.4888 -0.569457
          CHANNELS 3 Zrotation Xrotation Yrotation
          JOINT LeftArm
          {
            OFFSET 0 13.757 0
            CHANNELS 3 Zrotation Xrotation Yrotation
            JOINT LeftArmRoll
            {
              OFFSET 0 6.94478 0
              CHANNELS 3 Zrotation Xrotation Yrotation
              JOINT LeftForeArm
              {
                OFFSET 0 20.2277 0
                CHANNELS 3 Zrotation Xrotation Yrotation
                JOINT LeftForeArmRoll
                {
                  OFFSET 0 7.79312 0
                  CHANNELS 3 Zrotation Xrotation Yrotation
                  JOINT LeftHand
                  {
                    OFFSET 0 15.6391 0
                    CHANNELS 3 Zrotation Xrotation Yrotation
                    End Site
                    {
                      OFFSET 0 0 0
                    }
                  }
                }
              }
            }
          }
        }
      }
    }
  }
  JOINT RightUpLeg
  {
    OFFSET -6.91415 -1.26788 -1.06358
    CHANNELS 3 Zrotation Xrotation Yrotation
    JOINT RightUpLegRoll
    {
      OFFSET 0 18.3378 0
      CHANNELS 3 Zrotation Xrotation Yrotation
      JOINT RightLeg
      {
        OFFSET 0 -22.7085 0
        CHANNELS 3 Zrotation Xrotation Yrotation
        JOINT RightLegRoll
        {
          OFFSET 0 22.7828 0
          CHANNELS 3 Zrotation Xrotation Yrotation
          JOINT RightFoot
          {
            OFFSET 0 18.9629 0
            CHANNELS 3 Zrotation Xrotation Yrotation
            JOINT RightToeBase
            {
              OFFSET 0 15.852 0
              CHANNELS 3 Zrotation Xrotation Yrotation
              End Site
              {
                OFFSET 0.00671906 7.67701 -0.884893
              }
            }
          }
        }
      }
    }
  }
  JOINT LeftUpLeg
  {
    OFFSET 6.91415 -1.26788 -1.06358
    CHANNELS 3 Zrotation Xrotation Yrotation
    JOINT LeftUpLegRoll
    {
      OFFSET 0 18.3379 0
      CHANNELS 3 Zrotation Xrotation Yrotation
      JOINT LeftLeg
      {
        OFFSET 0 22.7084 0
        CHANNELS 3 Zrotation Xrotation Yrotation
        JOINT LeftLegRoll
        {
          OFFSET 0 22.9934 0
          CHANNELS 3 Zrotation Xrotation Yrotation
          JOINT LeftFoot
          {
            OFFSET 0 18.7522 0
            CHANNELS 3 Zrotation Xrotation Yrotation
            JOINT LeftToeBase
            {
              OFFSET 0 15.852 0
              CHANNELS 3 Zrotation Xrotation Yrotation
              End Site
              {
                OFFSET -0.030112 7.677 -0.884893
              }
            }
          }
        }
      }
    }
  }
}
MOTION
Frames: 4
Frame Time: 0.00208333
53.5288 93.912 9.61083 -2.34644 -4.34051 -1.4172 0.239922 -0.822089 0.424007 0.500843 2.36043 0.819286 0.491521 4.0054 0.811514 -1.73695 21.448 -2.07268 4.72314 -14.8272 -1.54712 88.4898 -3.84778 -4.43444 81.3963 16.6519 6.39098 1.88845e-014 -4.77083e-015 4.77083e-015 17.0587 16.7382 -2.93801 -9.07639e-006 -3.43828e-006 -2.99999 8.02904 -4.95144 0.697712 -63.1373 0.810274 0.0863102 -108.036 5.89704 -0.306386 -3.12092e-014 -1.59028e-015 -2.16178e-015 -11.5313 27.3869 4.60613 7.26614e-006 6.84411e-006 3 -8.02896 -4.95163 -0.697741 -178.292 -0.365494 -2.42115 180 7.01541e-015 178.899 179.823 11.5037 179.39 1.36568e-006 -1.61706e-006 0.208184 -20.624 70.7716 22.1524 8.13133 25.2329 -3.48554 -178.211 1.51933 6.26196 4.54188e-006 -4.6773e-006 -1.42222 -3.63532 -15.7991 -0.16253 2.20793e-006 -2.58006e-006 -0.441256 26.5613 72.9465 -25.2825 -8.13194 25.2386 3.48571 
53.5289 93.9108 9.6424 -2.34605 -4.33508 -1.41415 0.240203 -0.822568 0.422987 0.499946 2.35947 0.817243 0.490647 4.00444 0.809486 -1.73903 21.4317 -2.07161 4.73407 -14.8171 -1.54447 88.4914 -3.84732 -4.43441 81.3979 16.6472 6.34267 -7.95139e-015 0 -1.59028e-015 17.0752 16.8117 -2.95071 -9.07639e-006 -3.43828e-006 -2.99999 8.02904 -4.95144 0.697712 -63.141 0.814681 0.084322 -108.029 5.91785 -0.295613 -1.01652e-014 1.59028e-015 -5.34234e-016 -11.5295 27.4168 4.6101 7.26614e-006 6.84411e-006 3 -8.02896 -4.95163 -0.697741 -178.284 -0.352184 -2.42888 180 7.01541e-015 178.899 179.831 11.5432 179.388 1.36568e-006 -1.61706e-006 0.209282 -20.6544 70.8017 22.1825 8.13133 25.2329 -3.48554 -178.209 1.52658 6.2586 4.54188e-006 -4.6773e-006 -1.42222 -3.63813 -15.8233 -0.163564 2.20793e-006 -2.58006e-006 -0.441549 26.5952 72.9669 -25.3163 -8.13194 25.2386 3.48571 
53.5245 93.9074 9.65917 -2.34556 -4.32954 -1.41118 0.240511 -0.823094 0.421928 0.499029 2.35841 0.81511 0.489754 4.00338 0.807367 -1.74239 21.4159 -2.06999 4.74632 -14.807 -1.5414 88.493 -3.8469 -4.43438 81.3993 16.6429 6.29546 -1.09332e-014 1.59028e-015 -1.59028e-015 17.0916 16.8829 -2.96302 -9.07639e-006 -3.43828e-006 -2.99999 8.02904 -4.95144 0.697712 -63.1453 0.819054 0.0824254 -108.022 5.93861 -0.285303 -6.29744e-016 0 4.47266e-016 -11.5276 27.4458 4.61395 7.26614e-006 6.84411e-006 3 -8.02896 -4.95163 -0.697741 -178.277 -0.338613 -2.43661 180 7.01541e-015 178.899 179.839 11.583 179.387 1.36568e-006 -1.61706e-006 0.210354 -20.6846 70.8319 22.2127 8.13133 25.2329 -3.48554 -178.208 1.53402 6.25534 4.54188e-006 -4.6773e-006 -1.42222 -3.64098 -15.8475 -0.164609 2.20793e-006 -2.58006e-006 -0.441834 26.6292 72.9871 -25.35 -8.13194 25.2386 3.48571 
53.5186 93.9011 9.66283 -2.345 -4.32393 -1.40826 0.240839 -0.823654 0.420844 0.498099 2.35728 0.812914 0.488847 4.00225 0.805185 -1.74665 21.4002 -2.06798 4.7595 -14.797 -1.53804 88.4944 -3.8465 -4.43436 81.4007 16.6389 6.24902 4.77083e-015 -4.77083e-015 4.77083e-015 17.1079 16.9526 -2.97508 -9.07639e-006 -3.43828e-006 -2.99999 8.02904 -4.95144 0.697712 -63.1499 0.823403 0.0805929 -108.014 5.95935 -0.275317 -3.16673e-014 -7.95139e-016 -2.168e-015 -11.5258 27.4744 4.6177 7.26614e-006 6.84411e-006 3 -8.02896 -4.95163 -0.697741 -178.269 -0.32486 -2.44434 180 7.01541e-015 178.899 179.848 11.6228 179.385 1.36568e-006 -1.61706e-006 0.211407 -20.7147 70.8621 22.2429 8.13133 25.2329 -3.48554 -178.208 1.54161 6.25215 4.54188e-006 -4.6773e-006 -1.42222 -3.64385 -15.8716 -0.165661 2.20793e-006 -2.58006e-006 -0.442114 26.6633 73.0072 -25.3837 -8.13194 25.2386 3.48571 
